<svg width="132" height="36" viewBox="0 0 132 36" fill="none" xmlns="http://www.w3.org/2000/svg"><path d="M42.6208 17.7839C43.4134 17.2246 43.8782 16.3281 43.8782 15.3307C43.8782 12.9298 41.9379 11.4382 38.8147 11.4382H34.3723V24.831H39.1875C42.4247 24.831 44.3574 23.3227 44.3574 20.7967C44.3574 19.5568 43.6704 18.3826 42.6208 17.7839ZM37.5962 14.2364H38.9921C39.9611 14.2364 40.4947 14.707 40.4947 15.5614C40.4947 16.109 40.2637 16.5124 39.8605 16.6693C39.562 16.7509 39.2328 16.7622 38.9212 16.7622H37.5962V14.2364ZM39.3118 22.033H37.5962V19.223H39.489C40.3831 19.223 40.9385 19.758 40.9385 20.6192C40.9385 21.4914 40.3151 22.033 39.3118 22.033ZM53.1815 19.6077C53.1815 21.1479 52.3859 21.9621 50.8805 21.9621C49.3965 21.9621 48.579 21.1259 48.579 19.6077V11.4382H45.2311V19.8738C45.2311 23.0847 47.3958 25.0794 50.8805 25.0794C54.365 25.0794 56.5295 23.0847 56.5295 19.8738V11.4382H53.1815V19.6077ZM67.2588 22.2284C66.7325 22.2284 66.3713 21.9551 66.1216 21.3673L65.447 19.8083C67.0106 19.1062 67.9033 17.7096 67.9033 15.9518C67.9033 13.1254 65.924 11.4381 62.6089 11.4381H57.865V24.8308H61.1599V20.3588H62.4115L63.2699 22.237C64.2217 24.3355 65.0983 25.0792 66.6199 25.0792C67.263 25.0792 67.668 24.9825 67.8943 24.9014L68.0986 24.8285V22.1331L67.645 22.192C67.5249 22.2092 67.3888 22.2284 67.2588 22.2284ZM62.7512 17.5431H61.1601V14.3428H62.6802C63.878 14.3428 64.5378 14.9142 64.5378 15.952C64.5376 17.2671 63.566 17.5431 62.7512 17.5431ZM77.6347 19.0955L72.0106 11.4382H69.1344V24.831H72.4824V17.3351L78.0162 24.7078L78.1082 24.8308H80.9829V11.4382H77.6349L77.6347 19.0955ZM90.4304 16.6026H85.7747V11.4382H82.4267V24.831H85.7747V19.4893H90.4304V24.831H93.7785V11.4382H90.4305L90.4304 16.6026ZM99.8714 11.4382L94.4958 24.831H98.0385L99.0321 22.1868H103.54L104.533 24.831H108.058L102.701 11.4382H99.8714ZM100.065 19.4244C100.386 18.576 100.84 17.3049 101.281 16.0188C101.632 17.0231 102.138 18.4491 102.506 19.4244H100.065ZM117.99 22.2284C117.464 22.2284 117.103 21.9551 116.853 21.3673L116.178 19.8083C117.742 19.1062 118.635 17.7096 118.635 15.9518C118.635 13.1254 116.655 11.4381 113.34 11.4381H108.597V24.8308H111.891V20.3588H113.143L114.001 22.237C114.953 24.3355 115.83 25.0792 117.351 25.0792C117.994 25.0792 118.399 24.9825 118.626 24.9014L118.83 24.8285V22.1336L118.376 22.1922C118.257 22.209 118.122 22.2284 117.99 22.2284ZM113.483 17.5431H111.891V14.3428H113.412C114.61 14.3428 115.269 14.9142 115.269 15.952C115.269 17.2671 114.298 17.5431 113.483 17.5431ZM124.432 11.4382H120.043V24.831H124.468C128.876 24.831 131.838 22.1399 131.838 18.1347C131.839 14.1294 128.862 11.4382 124.432 11.4382ZM124.432 21.9266H123.391V14.3428H124.397C126.835 14.3428 128.473 15.8666 128.473 18.1347C128.473 20.4027 126.849 21.9266 124.432 21.9266ZM13.7172 24.954C11.1263 25.3411 9.47506 26.9408 8.61401 28.3573C8.61401 28.3573 8.12905 29.3011 8.09352 29.8488C8.09352 29.8488 9.41389 30.8846 12.9811 31.722C16.5484 32.5593 20.3715 31.2367 20.3715 31.2367L15.5955 27.9761L13.7172 24.954ZM27.2566 16.8797C28.7191 12.4125 26.5395 8.70841 26.5395 8.70841C26.411 10.4707 25.0127 12.862 25.0127 12.862C25.6049 7.97099 18.9125 2.81313 18.9125 2.81313L16.409 1.03976C16.3815 3.19815 14.5313 3.90847 14.5313 3.90847C14.2705 1.40482 12.4718 -0.000244141 12.4718 -0.000244141C12.1534 1.80363 10.4395 2.93433 9.1491 4.08889C5.02363 7.77954 4.84288 11.6186 4.84288 11.6186C4.44116 9.98368 3.99546 8.18532 3.99546 8.18532C0.29232 15.6961 3.73441 20.9638 3.73441 20.9638C1.99738 20.055 1.18598 18.753 0.45619 17.3747C0.0353194 18.3302 0.109953 19.8044 0.400864 20.7809C1.27554 23.7178 3.12354 26.2884 5.41967 28.1955L5.41529 28.1952L5.48847 28.2529C5.53033 28.2873 5.57138 28.3232 5.61356 28.3573H5.62054L6.90862 29.3755L7.16238 28.3573C8.35376 25.1302 10.8136 23.9063 10.837 23.8925L10.9671 23.8166L12.4014 20.0278V24.162L13.4608 23.4233C14.4288 24.3011 15.7472 24.9549 16.8319 25.2329L17.2362 26.9762C17.2608 27.112 22.2272 30.4561 22.2272 30.4561C24.4061 29.3773 25.6143 28.3573 25.6143 28.3573C27.7948 26.5896 29.4476 24.5337 30.3077 21.9905C31.1843 19.3981 31.3006 16.0146 30.0353 13.5854C29.0976 15.4816 27.2566 16.8797 27.2566 16.8797ZM12.3916 16.9603L12.4012 18.7207C11.9722 18.5565 11.4061 18.0385 11.2723 16.6756C11.0672 14.5871 12.6418 15.1292 12.8544 15.5399L13.5295 17.3718L12.3916 16.9603ZM16.5911 21.1772L16.8904 20.7605L16.5559 20.6787C15.5694 20.4378 15.2529 19.3072 15.1237 18.8192L16.0871 18.783L15.9244 18.503C15.1469 17.1654 14.2116 15.0914 14.5661 14.6681C14.7478 14.4512 14.814 14.2076 14.7575 13.9639C14.6542 13.5178 14.1655 13.1701 13.8395 12.9828L15.6648 11.6453L15.4829 13.049L17.7612 11.179L18.933 11.685L19.1049 10.8759L19.5917 11.1525L21.1655 13.8291C20.3877 13.7167 19.0078 13.6312 17.8831 14.1715L18.9985 14.3436C18.9985 14.3436 18.4005 14.585 17.8831 14.9979L20.242 15.4436C20.4219 15.1178 20.5743 14.7515 20.7991 14.4549C20.8079 14.4434 20.8178 14.4335 20.8269 14.4223L22.1499 16.5769L21.274 16.8322L21.1765 16.3196L20.6951 16.4264L20.7948 17.1983C20.4732 17.2895 19.6861 17.5352 18.8699 17.9627C18.8629 17.9668 18.1612 18.3699 17.4074 18.1733L17.0342 18.0759L17.1933 18.4271C17.4099 18.9047 18.0213 19.671 18.9476 19.671C19.1179 19.6708 19.2992 19.6449 19.4905 19.5865C20.4553 19.2915 20.977 18.9751 21.2211 18.7934C21.3117 19.0631 21.507 19.5732 21.6378 19.8741L20.7742 20.1342L21.135 20.8273C20.5313 21.1056 19.9368 21.1392 19.2335 20.9409L18.8222 20.8249L19.2656 21.7637L16.5911 21.1772ZM20.7896 25.6187L21.618 26.2803C21.618 26.2803 19.8034 26.7741 18.236 26.5253L17.9916 25.4441C18.3769 25.4874 18.7198 25.5011 18.9941 25.5011C19.3894 25.5011 19.6439 25.4735 19.683 25.4689L20.0054 25.4196C19.7838 25.2064 19.2777 24.6467 19.0553 24.3011C22.6009 25.1139 25.148 23.2573 25.1784 23.2315L24.8578 22.9992C21.8766 20.9956 21.4668 17.8761 21.384 17.3517L23.012 16.9352L21.3704 14.2033L22.0205 14.1291L19.8323 10.3742C19.5605 9.99292 19.2576 9.54106 19.1124 9.35967C18.7993 8.96817 18.6015 8.77671 18.2254 8.44492C17.7849 8.05633 17.4495 7.85417 16.902 7.63465C16.367 7.42032 15.749 7.33466 15.1599 7.33466C15.1599 7.33466 15.8533 8.06153 16.1019 8.75887C15.2881 8.44524 12.9887 8.15352 10.9124 10.161C9.9717 11.0706 9.3425 11.9801 8.74754 13.8229C8.61823 14.2234 8.33657 14.9767 8.15079 15.4263L8.09595 15.585L9.19989 14.8161L8.79832 16.2245L8.23305 19.5363L9.02774 19.0493V20.9176L10.1544 19.9673L10.7865 21.3968L10.1485 22.7219L9.66489 21.7903L7.89509 22.926L7.94474 20.6226L6.83821 21.0003L7.5899 16.5523L6.67417 16.9821C6.67417 16.9821 6.88932 14.9142 8.18649 11.947C9.0769 9.91034 11.6943 7.42259 14.354 7.64877L13.4784 6.43402C13.4784 6.43402 17.4606 5.91515 19.2443 7.82854C21.0281 9.74193 23.706 14.6475 23.706 14.6475L22.8771 14.7088L24.5187 17.5345L22.6958 18.0302C22.6958 18.0302 23.3985 21.3873 26.9117 23.2513C26.9117 23.2513 24.7006 25.9369 20.7896 25.6187Z" fill="#211B17"/></svg>