<svg width="249" height="69" viewBox="0 0 249 69" fill="none" xmlns="http://www.w3.org/2000/svg">
<path d="M54.8219 16.6032H45.38V7.06662C45.38 4.2675 43.135 2 40.3637 2H7.01633C4.245 2 2 4.2675 2 7.06662V55.3514C2 58.1505 4.245 60.418 7.01633 60.418H50.1976L54.8702 65.1375C55.418 65.6908 56.1538 66 56.9272 66C58.5331 66 59.8382 64.6872 59.8382 63.0598V21.6698C59.8382 18.8707 57.5932 16.6032 54.8219 16.6032ZM55.0206 55.5467H6.81761V6.86591H40.557V16.6032H21.4745C18.7032 16.6032 16.4582 18.8707 16.4582 21.6698V40.7483C16.4582 43.5474 18.7032 45.8149 21.4745 45.8149H40.3637C43.135 45.8149 45.38 43.5474 45.38 40.7483V21.4745H55.0206V55.5521V55.5467ZM40.5624 21.4691V40.9435H21.2812V21.4691H40.5624Z" fill="black"/>
<path d="M132.983 18.1221C131.039 16.8798 128.746 16.2505 126.173 16.2505C123.6 16.2505 121.307 16.8798 119.363 18.1221C117.419 19.3643 115.888 21.1273 114.803 23.3677C113.723 25.6026 113.176 28.2444 113.176 31.228C113.176 34.2116 113.723 36.8154 114.803 39.0341C115.888 41.2636 117.424 43.0212 119.363 44.2634C121.307 45.5057 123.6 46.1349 126.173 46.1349C128.746 46.1349 131.039 45.5057 132.983 44.2634C134.927 43.0212 136.458 41.2636 137.543 39.0341C138.623 36.8154 139.17 34.1899 139.17 31.228C139.17 28.2661 138.623 25.5972 137.543 23.3677C136.458 21.1273 134.922 19.3643 132.983 18.1221ZM133.45 36.4248C132.87 37.998 131.968 39.2836 130.77 40.2492C129.578 41.2039 128.031 41.6921 126.173 41.6921C124.315 41.6921 122.768 41.2094 121.576 40.2492C120.373 39.2836 119.47 37.998 118.896 36.4248C118.31 34.8354 118.015 33.0887 118.015 31.228C118.015 29.3673 118.31 27.6152 118.896 26.0149C119.476 24.4309 120.378 23.129 121.581 22.1526C122.773 21.187 124.32 20.6933 126.178 20.6933C128.037 20.6933 129.583 21.1816 130.776 22.1526C131.979 23.129 132.881 24.4255 133.461 26.0149C134.047 27.6152 134.342 29.3728 134.342 31.228C134.342 33.0832 134.047 34.8354 133.461 36.4248H133.45Z" fill="black"/>
<path d="M156.153 20.7042L156.121 16.473C156.121 16.3156 155.992 16.1909 155.841 16.1855C155.487 16.18 155.181 16.1746 154.923 16.1746C153.194 16.1746 151.62 16.6303 150.24 17.5308C149.02 18.3228 148.123 19.3426 147.565 20.5631V16.9069C147.565 16.7496 147.436 16.6194 147.28 16.6194H143.156C143 16.6194 142.871 16.7496 142.871 16.9069V45.4297C142.871 45.587 143 45.7172 143.156 45.7172H147.425C147.581 45.7172 147.71 45.587 147.71 45.4297V27.306C147.71 26.08 148.005 24.9734 148.596 24.0132C149.187 23.0531 150.003 22.2882 151.024 21.7403C152.05 21.1924 153.236 20.9103 154.552 20.9103C154.993 20.9103 155.422 20.9374 155.831 20.9863C156.002 21.008 156.147 20.8778 156.147 20.7042H156.153Z" fill="black"/>
<path d="M189.409 16.6249H193.679C193.834 16.6249 193.963 16.755 193.963 16.9124V45.5491C193.963 45.7064 193.834 45.8366 193.679 45.8366H189.409C189.253 45.8366 189.124 45.7064 189.124 45.5491V16.9124C189.124 16.755 189.253 16.6249 189.409 16.6249Z" fill="black"/>
<path d="M191.579 5.97084C190.671 5.97084 189.881 6.28547 189.232 6.91473C188.576 7.54399 188.243 8.30887 188.243 9.19308C188.243 10.0773 188.576 10.8422 189.232 11.4714C189.881 12.0953 190.671 12.4153 191.579 12.4153C192.486 12.4153 193.276 12.1007 193.926 11.4714C194.581 10.8422 194.914 10.0773 194.914 9.19308C194.914 8.30887 194.581 7.54399 193.926 6.91473C193.276 6.2909 192.486 5.97084 191.579 5.97084Z" fill="black"/>
<path d="M216.999 17.9322C215.871 17.2541 214.695 16.7984 213.486 16.576C212.299 16.359 211.236 16.2505 210.317 16.2505C208.889 16.2505 207.412 16.4513 205.94 16.8418C204.452 17.2378 203.067 17.9376 201.821 18.9249C200.634 19.8634 199.662 21.1599 198.931 22.7818C198.861 22.9337 198.937 23.1182 199.092 23.1724L203.142 24.6696C203.276 24.7184 203.421 24.6588 203.491 24.5286C203.964 23.6172 204.726 22.7439 205.774 21.9302C206.891 21.0568 208.47 20.6174 210.468 20.6174C212.466 20.6174 213.814 21.1002 214.738 22.0549C215.667 23.0097 216.134 24.3767 216.134 26.1234V26.2699C216.134 26.8774 215.935 27.2843 215.522 27.523C215.06 27.7888 214.308 27.9786 213.282 28.0926C212.219 28.2065 210.817 28.3801 209.114 28.6025C207.809 28.7761 206.493 29.0093 205.204 29.3023C203.899 29.5952 202.691 30.0454 201.611 30.6313C200.516 31.228 199.624 32.0634 198.969 33.1158C198.308 34.1682 197.975 35.5514 197.975 37.2222C197.975 39.1154 198.421 40.7537 199.302 42.0936C200.177 43.428 201.38 44.4641 202.868 45.1639C204.35 45.8637 206.015 46.2163 207.831 46.2163C209.496 46.2163 210.924 45.9613 212.09 45.4569C213.25 44.9524 214.195 44.3285 214.899 43.607C215.42 43.07 215.833 42.5547 216.139 42.061V45.4677C216.139 45.6142 216.258 45.7281 216.397 45.7281H220.721C220.866 45.7281 220.978 45.6087 220.978 45.4677V26.5791C220.978 24.2899 220.597 22.4292 219.851 21.0514C219.099 19.6735 218.137 18.6265 216.999 17.9376V17.9322ZM216.139 34.9981C216.139 36.1319 215.844 37.2222 215.269 38.2529C214.689 39.2782 213.825 40.1298 212.691 40.7808C211.558 41.4318 210.146 41.7627 208.491 41.7627C206.837 41.7627 205.451 41.3884 204.383 40.6506C203.33 39.9237 202.82 38.8768 202.82 37.4392C202.82 36.4031 203.094 35.5786 203.636 34.9819C204.195 34.3689 204.947 33.9024 205.87 33.5931C206.821 33.2731 207.858 33.0398 208.964 32.8934C209.426 32.8337 210.033 32.7523 210.785 32.6601C211.537 32.5679 212.321 32.454 213.121 32.3238C213.927 32.1936 214.652 32.0363 215.275 31.8518C215.629 31.7488 215.914 31.6403 216.139 31.5209V34.9981Z" fill="black"/>
<path d="M245.061 32.3129C243.799 31.0219 241.865 30.0454 239.32 29.4216L235.147 28.3855C233.53 27.9786 232.332 27.4633 231.586 26.8612C230.866 26.2807 230.512 25.505 230.512 24.496C230.512 23.3568 231.033 22.4401 232.112 21.6915C233.202 20.932 234.599 20.5469 236.258 20.5469C237.467 20.5469 238.471 20.7422 239.234 21.1273C240.002 21.5125 240.614 22.0061 241.055 22.5974C241.447 23.1182 241.763 23.6606 241.994 24.2085C242.053 24.3441 242.193 24.4146 242.333 24.3767L246.168 23.2483C246.323 23.1995 246.415 23.0259 246.361 22.8686C245.663 20.9374 244.529 19.3534 242.977 18.1546C241.345 16.8907 239.083 16.2505 236.258 16.2505C234.255 16.2505 232.434 16.614 230.855 17.3301C229.266 18.0461 227.993 19.0551 227.074 20.319C226.151 21.5938 225.678 23.0748 225.678 24.7293C225.678 26.7472 226.306 28.456 227.552 29.7959C228.782 31.1304 230.732 32.1231 233.347 32.7469L238.036 33.859C239.4 34.179 240.415 34.6618 241.06 35.2965C241.699 35.9203 242.005 36.6744 242.005 37.5965C242.005 38.7357 241.457 39.6905 240.329 40.515C239.191 41.345 237.628 41.7681 235.678 41.7681C233.97 41.7681 232.579 41.3992 231.532 40.6669C230.56 39.9888 229.872 38.9744 229.486 37.6454C229.443 37.4989 229.292 37.4067 229.147 37.4446L225.082 38.4645C224.931 38.5025 224.835 38.6598 224.867 38.8117C225.415 41.1497 226.629 42.9669 228.487 44.2038C230.399 45.484 232.843 46.1349 235.754 46.1349C237.966 46.1349 239.932 45.7552 241.608 45.0012C243.289 44.2472 244.621 43.1948 245.566 41.882C246.517 40.5584 247 39.0395 247 37.3633C247 35.3182 246.35 33.6148 245.077 32.3075L245.061 32.3129Z" fill="black"/>
<path d="M93.105 39.7067C90.6935 39.7067 89.7428 39.0829 89.7428 37.5423C89.7428 35.6708 92.1597 34.7486 92.1597 34.7486C93.7602 35.3616 95.6453 35.6654 97.6809 35.6654C104.539 35.6654 109.427 32.0092 109.427 26.1722C109.427 24.9137 109.013 22.771 107.321 20.6933H112.52C112.676 20.6933 112.805 20.5631 112.805 20.4058V16.9069C112.805 16.7496 112.676 16.6194 112.52 16.6194H97.6809C90.8868 16.6194 86.0638 20.2756 86.0638 26.1722C86.0638 29.248 87.3958 31.7488 89.6838 33.4196C87.2078 34.5099 85.4945 36.2404 85.4945 38.676C85.4945 40.5964 86.4344 42.3051 88.5129 43.2327C87.6106 43.466 83.4644 44.8927 83.4644 49.3897C83.4644 54.5865 89.6838 56.9571 97.176 56.9571C105.431 56.9571 113.176 54.2611 113.176 47.2741C113.176 42.9127 110.002 39.7067 103.97 39.7067H93.105ZM97.7024 20.6988C101.935 20.6988 104.534 22.6462 104.534 26.2048C104.534 29.7633 101.94 31.5915 97.7024 31.5915C93.4648 31.5915 90.9405 29.644 90.9405 26.2048C90.9405 22.7656 93.5346 20.6988 97.7024 20.6988ZM97.1814 52.8289C91.9556 52.8289 88.341 51.3806 88.341 48.0607C88.341 45.2236 90.86 44.3177 93.7602 44.3177H102.858C106.151 44.3177 108.277 45.1639 108.277 47.5779C108.277 51.3806 103.632 52.8289 97.1814 52.8289Z" fill="black"/>
<path d="M165.267 39.7067C162.856 39.7067 161.905 39.0829 161.905 37.5423C161.905 35.6708 164.322 34.7486 164.322 34.7486C165.922 35.3616 167.807 35.6654 169.843 35.6654C176.702 35.6654 181.589 32.0092 181.589 26.1722C181.589 24.9137 181.175 22.771 179.484 20.6933H184.683C184.838 20.6933 184.967 20.5631 184.967 20.4058V16.9069C184.967 16.7496 184.838 16.6194 184.683 16.6194H169.843C163.049 16.6194 158.226 20.2756 158.226 26.1722C158.226 29.248 159.558 31.7488 161.846 33.4196C159.37 34.5099 157.657 36.2404 157.657 38.676C157.657 40.5964 158.597 42.3051 160.675 43.2327C159.773 43.466 155.626 44.8927 155.626 49.3897C155.626 54.5865 161.846 56.9571 169.338 56.9571C177.593 56.9571 185.338 54.2611 185.338 47.2741C185.338 42.9127 182.164 39.7067 176.132 39.7067H165.267ZM169.865 20.6988C174.097 20.6988 176.696 22.6462 176.696 26.2048C176.696 29.7633 174.102 31.5915 169.865 31.5915C165.627 31.5915 163.103 29.644 163.103 26.2048C163.103 22.7656 165.697 20.6988 169.865 20.6988ZM169.344 52.8289C164.118 52.8289 160.503 51.3806 160.503 48.0607C160.503 45.2236 163.022 44.3177 165.922 44.3177H175.02C178.313 44.3177 180.44 45.1639 180.44 47.5779C180.44 51.3806 175.794 52.8289 169.344 52.8289Z" fill="black"/>
</svg>
