<svg width="188" height="44" viewBox="0 0 188 44" fill="none" xmlns="http://www.w3.org/2000/svg">
<path fill-rule="evenodd" clip-rule="evenodd" d="M139.772 37.0316V41.9996H137V29.0527H140.81C142.586 29.0527 143.901 29.373 144.753 30.0136C145.606 30.6541 146.032 31.6268 146.032 32.9315C146.032 33.6931 145.821 34.3705 145.397 34.9638C144.974 35.5572 144.375 36.0221 143.6 36.3586C145.567 39.2691 146.849 41.1495 147.445 41.9996H144.369L141.248 37.0316H139.772ZM139.772 34.8H140.667C141.543 34.8 142.19 34.6554 142.607 34.3661C143.024 34.0768 143.233 33.6222 143.233 33.0023C143.233 32.3883 143.02 31.9515 142.594 31.6917C142.167 31.4319 141.507 31.3021 140.613 31.3021H139.772V34.8Z" fill="#1B334C"/>
<path d="M133.53 41.9469V39.6798H128.772V36.3413H132.02L132.59 34.092H128.772V31.2493H133.53V29H126V41.9469H133.53Z" fill="#1B334C"/>
<path d="M119.323 41.9996V31.3375H122.873V29.0527H113L113.527 31.3375H116.55V41.9996H119.323Z" fill="#1B334C"/>
<path fill-rule="evenodd" clip-rule="evenodd" d="M103.935 38.9183L102.987 42H100L104.614 29H108.004L112.636 42H109.649L108.701 38.9183H103.935ZM104.632 36.6158H108.04C107.163 33.8233 106.67 32.2441 106.56 31.8781C106.449 31.512 106.37 31.2228 106.323 31.0102C106.126 31.7659 105.562 33.6344 104.632 36.6158Z" fill="#1B334C"/>
<path fill-rule="evenodd" clip-rule="evenodd" d="M90.7723 37.0316V41.9996H88V29.0527H91.8096C93.5863 29.0527 94.9009 29.373 95.7534 30.0136C96.606 30.6541 97.0322 31.6268 97.0322 32.9315C97.0322 33.6931 96.8206 34.3705 96.3973 34.9638C95.974 35.5572 95.3748 36.0221 94.5998 36.3586C96.5672 39.2691 97.849 41.1495 98.4452 41.9996H95.3689L92.2478 37.0316H90.7723ZM90.7723 34.8H91.6666C92.5429 34.8 93.1898 34.6554 93.6071 34.3661C94.0245 34.0768 94.2331 33.6222 94.2331 33.0023C94.2331 32.3883 94.02 31.9515 93.5937 31.6917C93.1675 31.4319 92.5072 31.3021 91.6129 31.3021H90.7723V34.8Z" fill="#1B334C"/>
<path d="M84.0225 41.9996V39.7326H79.2649V36.394H82.5129L83.0828 34.1447H79.2649V31.3021H84.0225V29.0527H76.4927V41.9996H84.0225Z" fill="#1B334C"/>
<path fill-rule="evenodd" clip-rule="evenodd" d="M67.8917 41.9996C69.3703 41.9996 70.5403 41.669 71.4018 41.0078C72.2633 40.3466 72.694 39.4256 72.694 38.2448C72.694 37.4124 72.5107 36.7453 72.144 36.2435C71.7774 35.7417 71.1797 35.3992 70.351 35.2162V35.1277C70.9591 35.0273 71.4465 34.7292 71.8131 34.2333C72.1798 33.7373 72.3631 33.1027 72.3631 32.3293C72.3631 31.1899 71.9443 30.3589 71.1067 29.8365C70.269 29.314 68.9231 29.0527 67.069 29.0527H63V41.9996H67.8917ZM67.382 34.1801H65.7723V31.3021H67.2299C68.0229 31.3021 68.6027 31.4098 68.9693 31.6253C69.336 31.8408 69.5193 32.1965 69.5193 32.6924C69.5193 33.2237 69.3509 33.6045 69.014 33.8348C68.6772 34.065 68.1332 34.1801 67.382 34.1801ZM65.7723 39.7326H67.5787C68.3418 39.7326 68.9052 39.5879 69.2689 39.2986C69.6326 39.0094 69.8144 38.5666 69.8144 37.9703C69.8144 36.8958 69.0394 36.3586 67.4893 36.3586H65.7723V39.7326Z" fill="#1B334C"/>
<path d="M176.503 21.8256V11.3068H180V9.05273H170.276V11.3068H173.773V21.8256H176.503Z" fill="#1B334C"/>
<path fill-rule="evenodd" clip-rule="evenodd" d="M79.1041 16.9244V21.8256H76.3737V9.05273H80.1258C81.8757 9.05273 83.1704 9.36871 84.0101 10.0007C84.8498 10.6326 85.2696 11.5922 85.2696 12.8793C85.2696 13.6307 85.0612 14.299 84.6443 14.8844C84.2274 15.4697 83.6372 15.9284 82.8739 16.2604C84.8116 19.1318 86.0741 20.9869 86.6613 21.8256H83.6314L80.5574 16.9244H79.1041ZM79.1041 14.7228H79.9849C80.8481 14.7228 81.4852 14.5801 81.8962 14.2947C82.3072 14.0093 82.5128 13.5608 82.5128 12.9492C82.5128 12.3435 82.3028 11.9125 81.883 11.6562C81.4632 11.4 80.8128 11.2718 79.9321 11.2718H79.1041V14.7228Z" fill="#1B334C"/>
<path d="M149.296 22L149.299 16.5H153.299V22H156.004V9H153.299V14.3767H149.299L149.296 9H146.6V22H149.296Z" fill="#1B334C"/>
<path fill-rule="evenodd" clip-rule="evenodd" d="M135.627 18.9183L134.679 22H131.692L136.307 9H139.696L144.329 22H141.342L140.394 18.9183H135.627ZM138.015 11.0102L136.325 16.6158H139.732L138.015 11.0102Z" fill="#1B334C"/>
<path d="M126.547 21.8256V16.7759H129.18L129.765 14.5655H126.547V11.2718H131.241V9.05273H123.86V21.8256H126.547Z" fill="#1B334C"/>
<path d="M120.981 21.8256V19.589H115.583L120.981 10.8V9.05273H112.204V11.2893H117.664L112.204 20.0695V21.8256H120.981Z" fill="#1B334C"/>
<path d="M104.431 22C109.149 22 109.481 17.9435 109.481 17V9H106.676V17C106.676 17.9901 106.896 19.557 104.509 19.557C102.122 19.557 102.272 17.9843 102.272 17V9H99.481V17C99.481 18.4619 99.7135 22 104.431 22Z" fill="#1B334C"/>
<path d="M96.5298 21.9469V19.6798H91.7723V16.3413H95.0202L95.5902 14.092H91.7723V11.2493H96.5298V9H89V21.9469H96.5298Z" fill="#1B334C"/>
<path fill-rule="evenodd" clip-rule="evenodd" d="M162.316 16.9244V21.8256H159.585V9.05273H163.337C165.087 9.05273 166.382 9.36871 167.222 10.0007C168.061 10.6326 168.481 11.5922 168.481 12.8793C168.481 13.6307 168.273 14.299 167.856 14.8844C167.439 15.4697 166.849 15.9284 166.085 16.2604C168.023 19.1318 169.286 20.9869 169.873 21.8256H166.843L163.769 16.9244H162.316ZM162.316 14.7228H163.196C164.06 14.7228 164.697 14.5801 165.108 14.2947C165.519 14.0093 165.724 13.5608 165.724 12.9492C165.724 12.3435 165.514 11.9125 165.095 11.6562C164.675 11.4 164.024 11.2718 163.144 11.2718H162.316V14.7228Z" fill="#1B334C"/>
<path d="M65.7305 21.8256V17.2651L66.8843 16.4439L70.2577 21.8256H73.3581L68.8308 14.7053L73.3229 9.05273H70.2929L66.805 13.3948L65.7305 14.8975V9.05273H63V21.8256H65.7305Z" fill="#1B334C"/>
<path fill-rule="evenodd" clip-rule="evenodd" d="M3 2H51.8544C53.5112 1.99998 54.8544 3.34314 54.8544 5C54.8544 5.66567 54.633 6.31244 54.2251 6.83847L52.0966 9.59483L50.1674 12.1176L48.712 14.0414L47.395 15.8029L45.9972 17.7026L44.9847 19.1073L44.1107 20.3497L43.6526 21.0172L43.375 21.4298L43 22C41.9979 23.5488 40.958 25.3844 39.8805 27.5069L39.3805 28.5069C39.0454 29.1872 38.7067 29.8946 38.3644 30.6292L37.8484 31.7514L37.327 32.9143L36.8002 34.118C36.7119 34.3221 36.6235 34.5278 36.5348 34.7352L36 36L40 42L3 41.9831C2.44789 41.9824 2.00046 41.5347 2 40.9826V3C2 2.44772 2.44772 2 3 2Z" fill="#1B334C"/>
<path fill-rule="evenodd" clip-rule="evenodd" d="M38 42.0004H54L21.9574 11.9961V13.2373C21.9574 13.3598 21.9889 13.4801 22.0488 13.5868L38 42.0004Z" fill="#FFCB00"/>
<path fill-rule="evenodd" clip-rule="evenodd" d="M14.4884 5.57031C15.3518 5.57031 15.7835 6.36954 15.7835 7.96799L18.9571 10.5096V10.9891H17.7224V13.4842H19.4955V15.4393H17.7224V17.3161L19.9939 18.0169V20.9574L18.4461 21.8257L20.3618 41.9823H8.67139L10.5744 21.8257L8.9436 20.9574V18.0169L11.2943 17.3161V15.4393H9.59874V13.4842H11.2943V10.9891H10.0417V10.5096L13.105 7.96799C13.105 6.36954 13.5602 5.57031 14.4884 5.57031Z" fill="white"/>
</svg>
