<svg width="956" height="170" viewBox="0 0 956 170" fill="none" xmlns="http://www.w3.org/2000/svg">
<g clip-path="url(#clip0_60_11647)">
<path d="M113.138 63.0003C118.058 60.6832 122.288 57.1066 125.401 52.6624C128.479 48.0639 130.487 42.8355 131.283 37.3695C132.258 31.5113 131.925 26.4018 130.309 22.0646C128.717 17.7393 125.568 14.1508 121.492 11.9881C117.262 9.54032 111.57 8.31641 104.428 8.31641H79.4392L69.6479 66.684H94.7084C101.897 66.684 108.041 65.46 113.15 63.0122L113.138 63.0003Z" fill="#062633"/>
<path d="M39.3352 11.4652C-2.13522 25.5699 -12.794 79.2675 20.1447 108.13L24.8265 112.23L41.7474 10.6453L39.3352 11.4652Z" fill="#062633"/>
<path d="M164.471 0.949219C165.505 2.75538 166.408 4.6566 167.157 6.61724C170.627 15.5055 171.435 25.7602 169.557 37.3814C167.822 48.5273 163.449 59.1029 156.819 68.2406C150.295 77.1289 141.621 84.2466 131.616 88.9164C121.29 93.8596 109.36 96.3312 95.8135 96.3312H64.6809L57.2543 140.63L73.9969 155.305C106.936 184.168 158.768 166.546 167.299 123.59L181.238 53.3992C185.349 32.7115 177.923 13.628 164.495 0.961101L164.471 0.949219Z" fill="#062633"/>
<path d="M227.853 32.0345C227.853 31.5117 228.079 31.2859 228.602 31.2859H273.459C290.808 31.2859 305.756 45.9372 305.756 64.5573C305.756 83.1774 290.808 97.7455 273.459 97.7455H246.842C246.473 97.7455 246.248 97.9713 246.248 98.3397V138.337C246.248 138.859 246.022 139.085 245.499 139.085H228.602C228.079 139.085 227.853 138.859 227.853 138.337V32.0345ZM246.236 80.183C246.236 80.7058 246.462 80.9316 246.984 80.9316H271.95C280.173 80.9316 287.576 73.5287 287.576 64.5573C287.576 55.5859 280.173 48.1117 271.95 48.1117H246.83C246.462 48.1117 246.236 48.3375 246.236 48.789V80.183Z" fill="#062633"/>
<path d="M316.736 32.0345C316.736 31.5117 316.961 31.2859 317.484 31.2859H334.31C334.833 31.2859 335.059 31.5117 335.13 32.0345V138.349C335.13 138.871 334.833 139.097 334.31 139.097H317.484C316.961 139.097 316.736 138.871 316.736 138.349V32.0345Z" fill="#062633"/>
<path d="M386.629 60.0776C409.052 60.0776 424.012 76.5232 424.012 100.372C423.786 103.437 423.644 104.851 423.263 106.658C423.038 107.18 422.812 107.406 422.444 107.406H369.209C368.686 107.406 368.461 107.632 368.389 108.155C368.389 116.758 375.864 123.781 386.629 123.781C393.438 123.781 398.821 122.212 401.506 116.9C401.732 116.378 402.101 116.152 402.707 116.152H420.649C421.327 116.152 421.624 116.378 421.398 116.9C419.675 124.375 415.647 130.209 409.289 134.32C402.932 138.503 395.387 140.594 386.641 140.594C364.219 140.594 349.258 124.291 349.258 100.372C349.258 76.4519 364.207 60.0776 386.641 60.0776H386.629ZM369.067 92.0657H403.835C404.204 92.0657 404.429 91.84 404.429 91.4716C404.429 85.3401 399.344 76.9629 386.641 76.9629C373.939 76.9629 368.401 85.4114 368.401 91.4716C368.401 91.8518 368.627 92.0657 369.079 92.0657H369.067Z" fill="#062633"/>
<path d="M438.057 62.3948C438.057 61.8719 438.283 61.6462 438.806 61.6462H453.386C454.206 61.6462 454.657 61.8719 454.729 62.3948L456.452 67.1003C456.678 67.6944 457.497 68.0747 458.092 67.2548C460.932 63.5949 469.76 60.0776 476.331 60.0776C500.477 60.0776 508.628 77.2718 508.628 96.5574V138.349C508.628 138.871 508.403 139.097 507.88 139.097H491.054C490.531 139.097 490.305 138.871 490.234 138.349V96.5574C490.234 87.3602 485.445 76.9748 473.266 76.9748C461.086 76.9748 456.44 85.7917 456.44 94.9889V138.349C456.44 138.871 456.143 139.097 455.62 139.097H438.794C438.271 139.097 438.046 138.871 438.046 138.349V62.3948H438.057Z" fill="#062633"/>
<path d="M515.77 62.3948C515.77 61.872 515.996 61.6462 516.519 61.6462H529.078C529.601 61.6462 529.827 61.3492 529.827 60.8263V40.1981C529.827 39.6752 530.053 39.4495 530.576 39.4495H547.473C547.996 39.4495 548.221 39.6752 548.221 40.1981V60.8263C548.221 61.3492 548.447 61.575 548.97 61.6462H564.596C565.119 61.6462 565.344 61.872 565.344 62.3948V76.9749C565.344 77.4977 565.119 77.7235 564.596 77.7235H548.97C548.447 77.7235 548.221 77.9492 548.221 78.4721V117.352C548.221 120.418 550.693 122.283 553.759 122.283H564.596C565.119 122.283 565.344 122.509 565.344 123.032V138.361C565.344 138.883 565.119 139.109 564.596 139.109H552.63C536.481 139.109 529.827 132.835 529.827 117.507V78.484C529.827 77.9611 529.601 77.7354 529.078 77.7354H516.519C515.996 77.7354 515.77 77.5096 515.77 76.9867V62.4067V62.3948Z" fill="#062633"/>
<path d="M575.373 62.3948C575.147 61.872 575.445 61.6462 576.122 61.6462H594.065C594.433 61.6462 594.742 61.872 594.956 62.3948L613.493 121.677C613.861 122.497 614.61 122.497 614.99 121.677L633.527 62.3948C633.753 61.872 634.05 61.6462 634.418 61.6462H652.206C652.884 61.6462 653.181 61.872 652.955 62.3948L623.569 150.089C619.089 163.172 611.829 169.446 598.746 169.446H576.241C575.718 169.446 575.492 169.149 575.492 168.626V154.271C575.492 153.749 575.718 153.523 576.241 153.523H594.932C599.792 153.523 601.955 151.8 602.561 148.889C602.715 148.211 602.786 147.617 602.786 146.94C602.786 146.049 602.632 145.074 602.418 144.029C602.05 142.306 601.527 140.369 600.921 138.349L575.349 62.3948H575.373Z" fill="#062633"/>
<path d="M709.897 29.8005C742.122 29.8005 758.413 52.9004 758.413 85.1974C758.413 117.494 742.11 140.594 709.897 140.594C677.683 140.594 661.38 117.863 661.38 85.1974C661.38 52.532 677.6 29.8005 709.897 29.8005ZM687.985 113.526C692.999 120.323 700.248 123.769 709.885 123.769C719.522 123.769 726.782 120.334 731.784 113.526C736.787 106.717 739.259 97.2227 739.259 85.1856C739.259 73.1484 736.787 63.6542 731.784 56.8454C726.77 50.0486 719.45 46.6026 709.885 46.6026C700.319 46.6026 692.988 50.0367 687.985 56.8454C682.971 63.6542 680.511 73.1484 680.511 85.1856C680.511 97.2227 682.982 106.717 687.985 113.526Z" fill="#062633"/>
<path d="M773.504 32.0345C773.504 31.5117 773.73 31.2859 774.253 31.2859H797.056C797.353 31.2859 797.65 31.5117 798.03 32.0345L839.976 112.623C840.344 113.597 841.473 113.443 841.473 112.623V32.0345C841.473 31.5117 841.77 31.2859 842.293 31.2859H859.119C859.642 31.2859 859.867 31.5117 859.867 32.0345V138.349C859.867 138.871 859.642 139.097 859.119 139.097H836.316C835.793 139.097 835.425 138.871 835.199 138.349L793.408 57.8317C793.039 56.8573 791.911 56.9405 791.911 57.8317V138.349C791.911 138.871 791.685 139.097 791.162 139.097H774.122C773.754 139.097 773.528 138.871 773.528 138.349V32.0345H773.504Z" fill="#062633"/>
<path d="M879.141 32.0345C879.141 31.5117 879.367 31.2859 879.89 31.2859H954.798C955.321 31.2859 955.547 31.5117 955.547 32.0345V47.3631C955.547 47.8859 955.321 48.1117 954.798 48.1117H898.284C897.761 48.1117 897.535 48.4088 897.535 48.9316V75.2517C897.535 75.7745 897.761 76.0003 898.284 76.0003H947.098C947.621 76.0003 947.847 76.2261 947.918 76.7489V92.0775C947.918 92.6003 947.621 92.8261 947.098 92.8974H898.284C897.761 92.8974 897.535 93.1232 897.535 93.646V121.451C897.535 121.974 897.761 122.2 898.284 122.271H954.798C955.321 122.271 955.547 122.497 955.547 123.02V138.349C955.547 138.871 955.321 139.097 954.798 139.097H879.89C879.367 139.097 879.141 138.871 879.141 138.349V32.0345Z" fill="#062633"/>
</g>
<defs>
<clipPath id="clip0_60_11647">
<rect width="954.82" height="168.508" fill="white" transform="translate(0.726562 0.949219)"/>
</clipPath>
</defs>
</svg>
