<svg width="956" height="170" viewBox="0 0 956 170" fill="none" xmlns="http://www.w3.org/2000/svg">
<g clip-path="url(#clip0_60_11649)">
<path d="M113.138 62.7464C118.058 60.4293 122.288 56.8526 125.401 52.4085C128.479 47.81 130.487 42.5816 131.283 37.1156C132.258 31.2574 131.925 26.1479 130.309 21.8107C128.717 17.4854 125.568 13.8969 121.492 11.7342C117.262 9.28641 111.57 8.0625 104.428 8.0625H79.4392L69.6479 66.4301H94.7084C101.897 66.4301 108.041 65.2061 113.15 62.7583L113.138 62.7464Z" fill="white"/>
<path d="M39.3352 11.2113C-2.13522 25.316 -12.794 79.0136 20.1447 107.877L24.8265 111.976L41.7474 10.3914L39.3352 11.2113Z" fill="white"/>
<path d="M164.471 0.695312C165.505 2.50147 166.408 4.4027 167.157 6.36333C170.627 15.2516 171.435 25.5063 169.557 37.1275C167.822 48.2734 163.449 58.849 156.819 67.9867C150.295 76.875 141.621 83.9927 131.616 88.6625C121.29 93.6057 109.36 96.0773 95.8135 96.0773H64.6809L57.2543 140.376L73.9969 155.051C106.936 183.914 158.768 166.292 167.299 123.336L181.238 53.1453C185.349 32.4576 177.923 13.3741 164.495 0.707195L164.471 0.695312Z" fill="white"/>
<path d="M227.853 31.7806C227.853 31.2578 228.079 31.032 228.602 31.032H273.459C290.808 31.032 305.756 45.6833 305.756 64.3034C305.756 82.9235 290.808 97.4916 273.459 97.4916H246.842C246.473 97.4916 246.248 97.7174 246.248 98.0858V138.083C246.248 138.606 246.022 138.831 245.499 138.831H228.602C228.079 138.831 227.853 138.606 227.853 138.083V31.7806ZM246.236 79.9291C246.236 80.4519 246.462 80.6777 246.984 80.6777H271.95C280.173 80.6777 287.576 73.2748 287.576 64.3034C287.576 55.332 280.173 47.8578 271.95 47.8578H246.83C246.462 47.8578 246.236 48.0836 246.236 48.5351V79.9291Z" fill="white"/>
<path d="M316.736 31.7806C316.736 31.2578 316.961 31.032 317.484 31.032H334.31C334.833 31.032 335.059 31.2578 335.13 31.7806V138.095C335.13 138.617 334.833 138.843 334.31 138.843H317.484C316.961 138.843 316.736 138.617 316.736 138.095V31.7806Z" fill="white"/>
<path d="M386.629 59.8237C409.052 59.8237 424.012 76.2693 424.012 100.118C423.786 103.184 423.644 104.598 423.263 106.404C423.038 106.927 422.812 107.152 422.444 107.152H369.209C368.686 107.152 368.461 107.378 368.389 107.901C368.389 116.504 375.864 123.527 386.629 123.527C393.438 123.527 398.821 121.958 401.506 116.647C401.732 116.124 402.101 115.898 402.707 115.898H420.649C421.327 115.898 421.624 116.124 421.398 116.647C419.675 124.121 415.647 129.955 409.289 134.067C402.932 138.249 395.387 140.341 386.641 140.341C364.219 140.341 349.258 124.038 349.258 100.118C349.258 76.198 364.207 59.8237 386.641 59.8237H386.629ZM369.067 91.8118H403.835C404.204 91.8118 404.429 91.586 404.429 91.2177C404.429 85.0862 399.344 76.709 386.641 76.709C373.939 76.709 368.401 85.1575 368.401 91.2177C368.401 91.5979 368.627 91.8118 369.079 91.8118H369.067Z" fill="white"/>
<path d="M438.057 62.1408C438.057 61.618 438.283 61.3922 438.806 61.3922H453.386C454.206 61.3922 454.657 61.618 454.729 62.1408L456.452 66.8464C456.678 67.4405 457.497 67.8208 458.092 67.0008C460.932 63.341 469.76 59.8237 476.331 59.8237C500.477 59.8237 508.628 77.0179 508.628 96.3035V138.095C508.628 138.618 508.403 138.843 507.88 138.843H491.054C490.531 138.843 490.305 138.618 490.234 138.095V96.3035C490.234 87.1063 485.445 76.7209 473.266 76.7209C461.086 76.7209 456.44 85.5378 456.44 94.7349V138.095C456.44 138.618 456.143 138.843 455.62 138.843H438.794C438.271 138.843 438.046 138.618 438.046 138.095V62.1408H438.057Z" fill="white"/>
<path d="M515.77 62.1409C515.77 61.6181 515.996 61.3923 516.519 61.3923H529.078C529.601 61.3923 529.827 61.0953 529.827 60.5724V39.9442C529.827 39.4213 530.053 39.1956 530.576 39.1956H547.473C547.996 39.1956 548.221 39.4213 548.221 39.9442V60.5724C548.221 61.0953 548.447 61.321 548.97 61.3923H564.596C565.119 61.3923 565.344 61.6181 565.344 62.1409V76.721C565.344 77.2438 565.119 77.4696 564.596 77.4696H548.97C548.447 77.4696 548.221 77.6953 548.221 78.2182V117.098C548.221 120.164 550.693 122.029 553.759 122.029H564.596C565.119 122.029 565.344 122.255 565.344 122.778V138.107C565.344 138.63 565.119 138.855 564.596 138.855H552.63C536.481 138.855 529.827 132.581 529.827 117.253V78.23C529.827 77.7072 529.601 77.4814 529.078 77.4814H516.519C515.996 77.4814 515.77 77.2557 515.77 76.7328V62.1528V62.1409Z" fill="white"/>
<path d="M575.373 62.1409C575.147 61.6181 575.445 61.3923 576.122 61.3923H594.065C594.433 61.3923 594.742 61.6181 594.956 62.1409L613.493 121.423C613.861 122.243 614.61 122.243 614.99 121.423L633.527 62.1409C633.753 61.6181 634.05 61.3923 634.418 61.3923H652.206C652.884 61.3923 653.181 61.6181 652.955 62.1409L623.569 149.835C619.089 162.918 611.829 169.192 598.746 169.192H576.241C575.718 169.192 575.492 168.895 575.492 168.372V154.018C575.492 153.495 575.718 153.269 576.241 153.269H594.932C599.792 153.269 601.955 151.546 602.561 148.635C602.715 147.957 602.786 147.363 602.786 146.686C602.786 145.795 602.632 144.82 602.418 143.775C602.05 142.052 601.527 140.115 600.921 138.095L575.349 62.1409H575.373Z" fill="white"/>
<path d="M709.897 29.5466C742.122 29.5466 758.413 52.6465 758.413 84.9435C758.413 117.241 742.11 140.34 709.897 140.34C677.683 140.34 661.38 117.609 661.38 84.9435C661.38 52.2781 677.6 29.5466 709.897 29.5466ZM687.985 113.272C692.999 120.069 700.248 123.515 709.885 123.515C719.522 123.515 726.782 120.081 731.784 113.272C736.787 106.463 739.259 96.9688 739.259 84.9316C739.259 72.8945 736.787 63.4003 731.784 56.5915C726.77 49.7947 719.45 46.3487 709.885 46.3487C700.319 46.3487 692.988 49.7828 687.985 56.5915C682.971 63.4003 680.511 72.8945 680.511 84.9316C680.511 96.9688 682.982 106.463 687.985 113.272Z" fill="white"/>
<path d="M773.504 31.7806C773.504 31.2578 773.73 31.032 774.253 31.032H797.056C797.353 31.032 797.65 31.2578 798.03 31.7806L839.976 112.369C840.344 113.343 841.473 113.189 841.473 112.369V31.7806C841.473 31.2578 841.77 31.032 842.293 31.032H859.119C859.642 31.032 859.867 31.2578 859.867 31.7806V138.095C859.867 138.617 859.642 138.843 859.119 138.843H836.316C835.793 138.843 835.425 138.617 835.199 138.095L793.408 57.5778C793.039 56.6034 791.911 56.6866 791.911 57.5778V138.095C791.911 138.617 791.685 138.843 791.162 138.843H774.122C773.754 138.843 773.528 138.617 773.528 138.095V31.7806H773.504Z" fill="white"/>
<path d="M879.141 31.7806C879.141 31.2578 879.367 31.032 879.89 31.032H954.798C955.321 31.032 955.547 31.2578 955.547 31.7806V47.1092C955.547 47.632 955.321 47.8578 954.798 47.8578H898.284C897.761 47.8578 897.535 48.1549 897.535 48.6777V74.9978C897.535 75.5206 897.761 75.7464 898.284 75.7464H947.098C947.621 75.7464 947.847 75.9722 947.918 76.495V91.8236C947.918 92.3464 947.621 92.5722 947.098 92.6435H898.284C897.761 92.6435 897.535 92.8693 897.535 93.3921V121.198C897.535 121.72 897.761 121.946 898.284 122.017H954.798C955.321 122.017 955.547 122.243 955.547 122.766V138.095C955.547 138.617 955.321 138.843 954.798 138.843H879.89C879.367 138.843 879.141 138.617 879.141 138.095V31.7806Z" fill="white"/>
</g>
<defs>
<clipPath id="clip0_60_11649">
<rect width="954.82" height="168.508" fill="white" transform="translate(0.726562 0.695312)"/>
</clipPath>
</defs>
</svg>
