<svg xmlns="http://www.w3.org/2000/svg" fill="none" viewBox="0 0 200 33" height="33" width="200">
<path fill="#CA0030" d="M196.71 32.4427C198.566 32.4427 200 31.0087 200 29.1529C200 27.2971 198.566 25.8632 196.71 25.8632C194.854 25.8632 193.421 27.2971 193.421 29.1529C193.421 31.0087 194.854 32.4427 196.71 32.4427ZM196.71 31.9365C195.192 31.9365 193.927 30.6713 193.927 29.1529C193.927 27.6346 195.192 26.3693 196.71 26.3693C198.229 26.3693 199.494 27.6346 199.494 29.1529C199.494 30.6713 198.229 31.9365 196.71 31.9365ZM197.216 29.3216C197.891 29.3216 198.397 29.0686 198.397 28.3094C198.397 27.5502 197.722 27.3815 197.132 27.3815H195.529V31.0087H196.035V29.3216H196.626L197.722 31.0087H198.313L197.216 29.3216ZM196.035 28.7311V27.8033H196.963C197.385 27.8033 197.807 27.8876 197.807 28.225C197.807 28.8155 197.048 28.7311 196.542 28.7311H196.035ZM65.542 11.6919L62.8427 15.3191C61.9148 14.4756 60.8182 13.8007 59.5529 13.8007C58.5407 13.8007 57.5285 14.5599 57.5285 15.6565C57.5285 17.2592 59.806 17.681 61.9992 18.6932C64.2767 19.7054 66.4698 21.1394 66.4698 24.9353C66.4698 29.7434 62.5896 32.6957 57.9502 32.6957C54.9979 32.6957 52.2143 31.3461 50.2741 29.0686L53.1421 25.357C54.3231 26.7067 55.9258 27.8876 57.7815 27.8876C59.1312 27.8876 60.3121 26.9597 60.3121 25.5257C60.3121 23.5856 58.1189 23.1639 55.9258 22.236C53.7326 21.3081 51.5394 20.0428 51.5394 16.5C51.5394 12.4511 54.4074 9.4144 58.4564 9.4144C60.8182 9.4144 63.7706 10.1736 65.542 11.6919ZM90.8477 22.0673H76.5078C76.5078 24.8509 77.6044 27.972 80.8098 27.972C82.8343 27.972 84.1839 26.7067 85.0274 25.0196L90.7634 25.9475C89.245 30.3338 85.4492 32.7801 80.8098 32.7801C74.0616 32.7801 69.9283 27.972 69.9283 21.3925C69.9283 14.7286 73.4711 9.58311 80.4724 9.58311C87.6423 9.58311 90.8477 14.8973 90.8477 21.4768V22.0673ZM76.6765 18.1871H85.0274C84.69 15.9939 83.256 13.8007 80.8941 13.8007C78.3636 13.8007 77.0139 15.9096 76.6765 18.1871ZM95.1497 17.8497V32.0209H101.392V20.3802C101.392 17.7653 101.392 14.3912 104.766 14.3912C108.309 14.3912 108.309 17.7653 108.309 20.3802V31.9365H114.551V17.8497C114.551 13.4633 112.273 9.49875 104.85 9.49875C97.4272 9.4144 95.1497 13.4633 95.1497 17.8497ZM126.613 15.4034H130.409V10.1736H126.613V3.76278H120.371V32.0209H126.613V15.4034ZM134.374 3.76278V32.0209H140.616V21.1394C140.616 18.5245 140.7 14.3912 144.327 14.3912C147.87 14.3912 147.701 17.7653 147.701 20.3802V31.9365H153.943V18.6088C153.943 13.5477 152.256 9.4144 146.352 9.4144C144.159 9.4144 141.965 10.1736 140.7 11.945H140.616V3.76278H134.374ZM178.996 22.0673H164.656C164.656 24.8509 165.753 27.972 168.958 27.972C170.983 27.972 172.248 26.7067 173.176 25.0196L178.912 25.9475C177.394 30.3338 173.598 32.7801 169.043 32.7801C162.294 32.7801 158.161 27.972 158.161 21.3925C158.161 14.7286 161.704 9.58311 168.705 9.58311C175.875 9.58311 179.081 14.8973 179.081 21.4768V22.0673H178.996ZM164.741 18.1871H173.092C172.754 15.9939 171.32 13.8007 168.958 13.8007C166.428 13.8007 165.078 15.9096 164.741 18.1871ZM189.456 3.76278H183.214V32.0209H189.456V3.76278ZM36.1873 22.0673H21.8473C21.8473 24.8509 22.9439 27.972 26.1493 27.972C28.1738 27.972 29.5234 26.7067 30.3669 25.0196L36.1029 25.9475C34.5846 30.3338 30.7887 32.7801 26.1493 32.7801C19.4011 32.7801 15.2678 27.972 15.2678 21.3925C15.2678 14.7286 18.8106 9.58311 25.8119 9.58311C32.9819 9.58311 36.1873 14.8973 36.1873 21.4768V22.0673ZM22.016 18.1871H30.3669C30.0295 15.9939 28.5955 13.8007 26.2337 13.8007C23.7031 13.8007 22.2691 15.9096 22.016 18.1871ZM12.4842 15.9939L15.0148 10.6797C13.5808 9.92052 11.8094 9.4144 9.86925 9.4144C2.69928 9.4144 0 14.2225 0 20.802V31.9365H6.24209V23.4169C6.24209 20.6333 5.73598 14.8973 9.86925 14.8973C10.9658 14.8973 11.8094 15.3191 12.4842 15.9939ZM40.4049 31.9365H46.647V10.1736H40.4049V31.9365ZM43.5259 0.219971C41.5015 0.219971 39.8988 1.90702 39.8988 3.84713C39.8988 5.87159 41.5015 7.47429 43.5259 7.47429C45.5504 7.47429 47.1531 5.87159 47.1531 3.84713C47.1531 1.90702 45.5504 0.219971 43.5259 0.219971Z" clip-rule="evenodd" fill-rule="evenodd" id="Vector"></path>
</svg>
